<?xml version="1.0" encoding="utf-8"?>
<!-- Generator: Adobe Illustrator 26.0.0, SVG Export Plug-In . SVG Version: 6.00 Build 0)  -->
<svg version="1.1" id="Capa_1" xmlns="http://www.w3.org/2000/svg" xmlns:xlink="http://www.w3.org/1999/xlink" x="0px" y="0px"
	 viewBox="0 0 550 550" enable-background="new 0 0 550 550" xml:space="preserve">
<g>
	<linearGradient id="SVGID_1_" gradientUnits="userSpaceOnUse" x1="275.1937" y1="174.8963" x2="275.1937" y2="508.6471">
		<stop  offset="0" style="stop-color:#6FE196"/>
		<stop  offset="1" style="stop-color:#1AA49C"/>
	</linearGradient>
	<path fill="url(#SVGID_1_)" d="M439,298.8l-95.7-95.7c-18.2-18.2-42.4-28.3-68.2-28.3c-25.8,0-50,10-68.2,28.3l-95.7,95.7
		c-47.9,47.9-47.9,125.9,0,173.8c23.2,23.2,54.1,36,86.9,36c28.3,0,55.2-9.5,77-27.1c21.8,17.5,48.6,27.1,77,27.1
		c32.8,0,63.7-12.8,86.9-36c23.2-23.2,36-54.1,36-86.9C475.1,352.9,462.3,322,439,298.8z M419.2,452.8c-17.9,17.9-41.7,27.8-67,27.8
		c-25.3,0-49.1-9.9-67-27.8c0,0-67.7-67.7-67.7-67.7c-13.4-13.4-13.4-35.1,0-48.5c13.4-13.4,35.1-13.4,48.5,0
		c5.5,5.5,14.4,5.5,19.9,0c13.4-13.4,35.1-13.4,48.5,0c13.4,13.4,13.4,35.2,0,48.5L302,417.4c-5.5,5.5-5.5,14.4,0,19.9
		c5.5,5.5,14.4,5.5,19.9,0l32.3-32.3c24.3-24.3,24.3-63.9,0-88.3c-21.2-21.2-54.1-23.9-78.3-8.1c-24.2-15.9-57.1-13.2-78.3,8.1
		c-24.3,24.3-24.3,63.9,0,88.3l57.1,57.1c-16.2,12-35.8,18.6-56.4,18.6c-25.3,0-49.1-9.9-67-27.8c-37-37-37-97.1,0-134.1l95.7-95.7
		c12.9-12.9,30.1-20,48.3-20c18.3,0,35.4,7.1,48.3,20l95.7,95.7c17.9,17.9,27.8,41.7,27.8,67C447,411.1,437.1,434.9,419.2,452.8z"/>
	<g>
		<g>
			
				<linearGradient id="SVGID_00000151515547284974680700000001977028557981655690_" gradientUnits="userSpaceOnUse" x1="482.2042" y1="162.6802" x2="482.2042" y2="287.8361">
				<stop  offset="0" style="stop-color:#6FE196"/>
				<stop  offset="1" style="stop-color:#1AA49C"/>
			</linearGradient>
			<path fill="url(#SVGID_00000151515547284974680700000001977028557981655690_)" d="M482.2,287.8L482.2,287.8c-1.5,0-3-0.1-4.5-0.2
				c-34.4-2.5-60.4-32.5-57.9-66.9c2.3-32.6,29.7-58.1,62.4-58.1c1.5,0,3,0.1,4.5,0.2c34.4,2.5,60.4,32.5,57.9,66.9
				C542.3,262.3,514.9,287.8,482.2,287.8z M482.2,190.8c-18,0-33.1,14.1-34.3,32c-1.4,19,13,35.5,31.9,36.9
				c19,1.3,35.5-13.1,36.9-31.9c1.4-19-13-35.5-31.9-36.9C483.8,190.8,483,190.8,482.2,190.8z"/>
		</g>
		<g>
			
				<linearGradient id="SVGID_00000103261798964347769260000008604392087994479540_" gradientUnits="userSpaceOnUse" x1="361.0872" y1="41.2356" x2="361.0872" y2="166.383">
				<stop  offset="0" style="stop-color:#6FE196"/>
				<stop  offset="1" style="stop-color:#1AA49C"/>
			</linearGradient>
			<path fill="url(#SVGID_00000103261798964347769260000008604392087994479540_)" d="M361.1,166.4L361.1,166.4
				c-18.2,0-35.4-7.9-47.3-21.6c-10.9-12.6-16.3-28.8-15.1-45.4c1.2-16.7,8.8-31.9,21.4-42.8c11.4-9.9,25.9-15.3,41-15.3
				c18.2,0,35.4,7.9,47.3,21.6c10.9,12.6,16.3,28.8,15.1,45.4c-1.2,16.7-8.8,31.9-21.4,42.8C390.7,161,376.1,166.4,361.1,166.4z
				 M361.1,69.3c-8.3,0-16.3,3-22.6,8.4c-7,6-11.2,14.4-11.8,23.6c-0.7,9.2,2.3,18.1,8.3,25c6.5,7.6,16.1,11.9,26.1,11.9
				c8.3,0,16.3-3,22.6-8.4c7-6,11.1-14.4,11.8-23.6c0.7-9.2-2.3-18.1-8.3-25C380.6,73.7,371.1,69.3,361.1,69.3z"/>
		</g>
		<g>
			
				<linearGradient id="SVGID_00000097491947472190626280000009434641650460924290_" gradientUnits="userSpaceOnUse" x1="189.5674" y1="41" x2="189.5674" y2="166.1511">
				<stop  offset="0" style="stop-color:#6FE196"/>
				<stop  offset="1" style="stop-color:#1AA49C"/>
			</linearGradient>
			<path fill="url(#SVGID_00000097491947472190626280000009434641650460924290_)" d="M189.6,166.2
				C189.6,166.2,189.6,166.2,189.6,166.2c-1.5,0-3-0.1-4.5-0.2c-16.7-1.2-31.9-8.8-42.8-21.4c-10.9-12.6-16.3-28.8-15.1-45.4
				c2.3-32.6,29.7-58.1,62.4-58.1c1.5,0,3,0.1,4.5,0.2c16.7,1.2,31.9,8.8,42.8,21.4c10.9,12.6,16.3,28.8,15.1,45.4
				C249.7,140.6,222.3,166.2,189.6,166.2z M189.5,69.1c-18,0-33.1,14.1-34.3,32c-1.4,19,13,35.5,31.9,36.9
				c19,1.3,35.5-13.1,36.9-31.9c0.7-9.2-2.3-18.1-8.3-25c-6-7-14.4-11.2-23.6-11.8C191.2,69.1,190.4,69.1,189.5,69.1z"/>
		</g>
		<g>
			
				<linearGradient id="SVGID_00000183214075811285920300000001915580495291962295_" gradientUnits="userSpaceOnUse" x1="68.1042" y1="162.1149" x2="68.1042" y2="287.2623">
				<stop  offset="0" style="stop-color:#6FE196"/>
				<stop  offset="1" style="stop-color:#1AA49C"/>
			</linearGradient>
			<path fill="url(#SVGID_00000183214075811285920300000001915580495291962295_)" d="M68.1,287.3C68.1,287.3,68.1,287.3,68.1,287.3
				c-18.2,0-35.4-7.9-47.3-21.6C9.9,253,4.5,236.9,5.7,220.2c1.2-16.7,8.8-31.9,21.4-42.8c11.4-9.9,25.9-15.3,40.9-15.3
				c18.2,0,35.4,7.9,47.3,21.6c22.6,26.1,19.7,65.7-6.3,88.3C97.7,281.8,83.2,287.3,68.1,287.3z M68.1,190.2c-8.3,0-16.3,3-22.5,8.4
				c-7,6-11.2,14.4-11.8,23.6c-0.7,9.2,2.3,18.1,8.3,25c6.6,7.6,16.1,11.9,26.1,11.9c8.3,0,16.3-3,22.6-8.4
				c14.4-12.4,15.9-34.3,3.5-48.6C87.6,194.6,78.1,190.2,68.1,190.2z"/>
		</g>
	</g>
</g>
</svg>
