<?xml version="1.0" encoding="utf-8"?>
<!-- Generator: Adobe Illustrator 26.0.0, SVG Export Plug-In . SVG Version: 6.00 Build 0)  -->
<svg version="1.1" id="Capa_1" xmlns="http://www.w3.org/2000/svg" xmlns:xlink="http://www.w3.org/1999/xlink" x="0px" y="0px"
	 viewBox="0 0 358 358" enable-background="new 0 0 358 358" xml:space="preserve">
<g>
	<path fill="#FFFFFF" d="M285.8,194.4l-62.3-62.3c-11.9-11.9-27.6-18.4-44.4-18.4c-16.8,0-32.5,6.5-44.4,18.4l-62.3,62.3
		c-31.2,31.2-31.2,81.9,0,113.1c15.1,15.1,35.2,23.4,56.6,23.4c18.4,0,35.9-6.2,50.1-17.6c14.2,11.4,31.7,17.6,50.1,17.6
		c21.4,0,41.5-8.3,56.6-23.4c15.1-15.1,23.4-35.2,23.4-56.6C309.3,229.6,300.9,209.6,285.8,194.4z M272.9,294.6
		c-11.7,11.7-27.2,18.1-43.6,18.1c-16.5,0-32-6.4-43.6-18.1c0,0-44.1-44.1-44.1-44.1c-8.7-8.7-8.7-22.9,0-31.6
		c8.7-8.7,22.9-8.7,31.6,0c3.6,3.6,9.4,3.6,12.9,0c8.7-8.7,22.9-8.7,31.6,0c8.7,8.7,8.7,22.9,0,31.6l-21,21c-3.6,3.6-3.6,9.4,0,12.9
		c3.6,3.6,9.4,3.6,12.9,0l21-21c15.8-15.8,15.8-41.6,0-57.4c-13.8-13.8-35.2-15.6-51-5.3c-15.7-10.3-37.1-8.6-51,5.3
		c-15.8,15.8-15.8,41.6,0,57.4l37.1,37.1c-10.6,7.8-23.3,12.1-36.7,12.1c-16.5,0-32-6.4-43.6-18.1c-24.1-24.1-24.1-63.2,0-87.3
		l62.3-62.3c8.4-8.4,19.6-13,31.5-13c11.9,0,23.1,4.6,31.5,13l62.3,62.3C284.5,219,291,234.5,291,251
		C291,267.5,284.5,283,272.9,294.6z"/>
	<g>
		<g>
			<path fill="#FFFFFF" d="M313.9,187.3L313.9,187.3c-1,0-2,0-2.9-0.1c-22.4-1.6-39.3-21.1-37.7-43.5c1.5-21.2,19.3-37.8,40.6-37.8
				c1,0,2,0,2.9,0.1c22.4,1.6,39.3,21.1,37.7,43.5C353,170.7,335.2,187.3,313.9,187.3z M313.9,124.1c-11.7,0-21.5,9.2-22.4,20.8
				c-0.9,12.3,8.4,23.1,20.8,24c12.4,0.9,23.1-8.6,24-20.8c0.9-12.3-8.4-23.1-20.8-24C315,124.1,314.4,124.1,313.9,124.1z"/>
		</g>
		<g>
			<path fill="#FFFFFF" d="M235.1,108.2L235.1,108.2c-11.8,0-23.1-5.1-30.8-14.1c-7.1-8.2-10.6-18.7-9.8-29.6
				c0.8-10.8,5.7-20.7,14-27.9c7.4-6.4,16.9-9.9,26.7-9.9c11.8,0,23.1,5.1,30.8,14.1c7.1,8.2,10.6,18.7,9.8,29.6
				c-0.8,10.9-5.7,20.7-14,27.9C254.3,104.7,244.9,108.2,235.1,108.2z M235.1,45.1c-5.4,0-10.6,1.9-14.7,5.5
				c-4.5,3.9-7.3,9.4-7.7,15.4c-0.4,6,1.5,11.8,5.4,16.3c4.3,4.9,10.5,7.7,17,7.7c5.4,0,10.6-1.9,14.7-5.5c4.5-3.9,7.3-9.4,7.7-15.4
				c0.4-6-1.5-11.8-5.4-16.3C247.8,47.9,241.6,45.1,235.1,45.1z"/>
		</g>
		<g>
			<path fill="#FFFFFF" d="M123.5,108.1C123.5,108.1,123.5,108.1,123.5,108.1c-1,0-2,0-2.9-0.1c-10.9-0.8-20.8-5.7-27.9-14
				c-7.1-8.2-10.6-18.7-9.8-29.6c1.5-21.2,19.3-37.8,40.6-37.8c1,0,2,0,2.9,0.1c10.9,0.8,20.7,5.7,27.9,14
				c7.1,8.2,10.6,18.7,9.8,29.6C162.6,91.5,144.7,108.1,123.5,108.1z M123.4,44.9c-11.7,0-21.5,9.2-22.3,20.8
				c-0.9,12.3,8.4,23.1,20.8,24c12.4,0.9,23.1-8.6,24-20.8c0.4-6-1.5-11.8-5.4-16.3c-3.9-4.5-9.4-7.3-15.4-7.7
				C124.5,45,124,44.9,123.4,44.9z"/>
		</g>
		<g>
			<path fill="#FFFFFF" d="M44.4,186.9C44.4,186.9,44.4,186.9,44.4,186.9c-11.8,0-23.1-5.1-30.8-14.1c-7.1-8.2-10.6-18.7-9.8-29.6
				c0.8-10.9,5.7-20.7,14-27.9c7.4-6.4,16.9-9.9,26.6-9.9c11.8,0,23.1,5.1,30.8,14.1c14.7,17,12.9,42.7-4.1,57.4
				C63.7,183.4,54.2,186.9,44.4,186.9z M44.4,123.8c-5.4,0-10.6,1.9-14.7,5.5c-4.5,3.9-7.3,9.4-7.7,15.4c-0.4,6,1.5,11.8,5.4,16.3
				c4.3,4.9,10.5,7.7,17,7.7c5.4,0,10.6-1.9,14.7-5.5c9.3-8.1,10.4-22.3,2.3-31.7C57.1,126.6,50.9,123.8,44.4,123.8z"/>
		</g>
	</g>
</g>
<linearGradient id="SVGID_1_" gradientUnits="userSpaceOnUse" x1="409.5" y1="120" x2="409.5" y2="165">
	<stop  offset="0" style="stop-color:#942080"/>
	<stop  offset="1" style="stop-color:#29285B"/>
</linearGradient>
<rect x="381" y="120" fill="url(#SVGID_1_)" width="57" height="45"/>
<linearGradient id="SVGID_00000181773292270458335010000007968792696681468053_" gradientUnits="userSpaceOnUse" x1="409.5" y1="187" x2="409.5" y2="232">
	<stop  offset="0" style="stop-color:#6FE196"/>
	<stop  offset="1" style="stop-color:#1AA49C"/>
</linearGradient>
<rect x="381" y="187" fill="url(#SVGID_00000181773292270458335010000007968792696681468053_)" width="57" height="45"/>
</svg>
